Coordinates
version=1
nRows=19
nColumns=36
inDegrees=yes

Units are S.I. units (second, meters, Newtons, ...)
If the header above contains a line with 'inDegrees', this indicates whether rotational values are in degrees (yes) or radians (no).

endheader
time	pelvis_tilt	pelvis_list	pelvis_rotation	pelvis_tx	pelvis_ty	pelvis_tz	hip_flexion_r	hip_adduction_r	hip_rotation_r	knee_angle_r	knee_angle_r_beta	ankle_angle_r	subtalar_angle_r	mtp_angle_r	hip_flexion_l	hip_adduction_l	hip_rotation_l	knee_angle_l	knee_angle_l_beta	ankle_angle_l	subtalar_angle_l	mtp_angle_l	lumbar_extension	lumbar_bending	lumbar_rotation	arm_flex_r	arm_add_r	arm_rot_r	elbow_flex_r	pro_sup_r	arm_flex_l	arm_add_l	arm_rot_l	elbow_flex_l	pro_sup_l
      0.00000000	      0.49001938	     -0.11287074	     -2.40582311	     -0.86935057	      1.26341563	     -0.09110657	     -4.81151469	      0.88743585	      0.29847694	      3.28527791	      0.05733892	      2.23156076	    -12.45077261	     -5.75010225	     -5.02384606	      0.05707784	      0.44989633	      2.42426573	      0.04231142	      9.48955268	     -2.68561284	     -5.75010225	    -14.03341409	      2.84115673	     -1.27718460	     12.88487260	     -8.73992782	     30.35257617	     23.95510292	     70.96131632	      6.28070111	     -7.77049298	     20.06596922	     27.53136321	     64.98355104
      0.00416670	     -2.26075280	      0.02129449	     -1.57448993	     -0.86955006	      1.25754391	     -0.09131002	     -2.00240156	      1.30269102	      0.95454307	      2.80364827	      0.04893289	      4.16704331	     -8.88109875	     -6.70513460	     -2.23300321	      0.46826736	      2.18180558	      1.65845891	      0.02894557	      8.88121009	     -1.53479598	     -6.70513460	    -10.23637448	      2.74858854	     -1.03858435	     10.94820393	     -8.12305330	     24.09112449	     24.31779390	     76.40695415	      6.20869843	     -7.19880286	     18.86636690	     27.00114930	     67.28395769
      0.00833330	     -3.22919808	      0.43769560	     -1.48354276	     -0.86917313	      1.25638932	     -0.09088403	     -1.33404058	      1.01008774	      0.58942802	      1.89203491	      0.03302224	      4.70854459	     -8.31899654	     -7.20554808	     -1.32807451	      0.98083284	      2.25687318	      1.26955933	      0.02215799	      9.01815263	     -0.61776918	     -7.20554808	     -9.22348663	      1.88863820	     -0.62745903	      9.98868667	     -7.26393035	     19.66905167	     24.90207630	     78.36587822	      6.67352122	     -7.37888727	     18.50221383	     26.78479453	     68.63440090
      0.01250000	     -3.08770487	      0.62380893	     -1.33689410	     -0.86963711	      1.25564548	     -0.09131106	     -1.63579271	      0.79213408	      1.09672799	      1.38372878	      0.02415062	      5.00439979	     -8.60955888	     -7.34639881	     -1.76416351	      1.26779289	      2.73530447	      0.73638423	      0.01285233	      8.87635138	     -0.88188634	     -7.34639881	     -9.64521424	      1.39492640	     -0.49715305	      9.55751652	     -6.88832361	     18.25018396	     25.58527482	     73.69774653	      6.94617096	     -7.57568000	     17.60332083	     27.16429538	     66.33926824
      0.01666670	     -3.00596079	      0.66235603	     -1.30187737	     -0.86911926	      1.25789497	     -0.09230120	     -1.89643502	      0.75128908	      1.09287922	      1.04009295	      0.01815305	      5.20692282	     -8.51380099	     -7.44296574	     -2.01620121	      1.40779652	      3.20507158	      0.55174646	      0.00962979	      8.91334948	     -1.12972821	     -7.44296574	     -9.85761551	      1.29908620	     -0.23448400	      9.21549499	     -6.79923236	     17.58578621	     26.17002620	     70.21119711	      7.17571166	     -7.55268569	     17.30394364	     27.16116914	     64.90596607
      0.02083330	     -3.01062078	      0.74486206	     -1.32606278	     -0.87098155	      1.25505897	     -0.09114707	     -1.90395396	      0.65159111	      1.52691364	      0.91773200	      0.01601745	      5.27443165	     -8.99451881	     -7.44585384	     -2.04062056	      1.53126601	      3.45134694	      0.48231513	      0.00841799	      9.18377538	     -1.36231435	     -7.44585384	     -9.99084289	      1.15109258	      0.01564061	      9.19662238	     -6.83827651	     17.71305306	     26.25564266	     70.42094271	      7.41865969	     -7.60565810	     17.32197290	     27.05570493	     65.07876937
      0.02500000	     -3.06850551	      0.75766686	     -1.38061908	     -0.87085531	      1.25694880	     -0.09048616	     -1.87286811	      0.63266609	      1.56954491	      0.83064773	      0.01449754	      5.29511433	     -9.02612048	     -7.44590849	     -2.03929074	      1.52054756	      3.60702668	      0.43088750	      0.00752041	      9.20014844	     -1.31922411	     -7.44590849	    -10.00262377	      1.15512155	      0.11258485	      9.28771854	     -6.82432319	     17.74420574	     26.30576146	     70.45315612	      7.47227361	     -7.64467507	     17.32596863	     27.07564084	     65.10012061
      0.02916670	     -2.89691325	      0.75816489	     -1.40646333	     -0.87047983	      1.25762374	     -0.09025451	     -2.11893606	      0.65117974	      2.29200062	      0.70072397	      0.01222994	      4.85554998	    -10.15180683	     -7.47270709	     -2.24440467	      1.49613897	      4.16620427	      0.43345857	      0.00756528	      9.11790447	     -1.83529554	     -7.47270709	    -10.35163443	      1.07618270	      0.51576102	      9.22618535	     -7.23076528	     18.41081603	     26.70930805	     77.26318216	      7.79161852	     -7.65852491	     17.21754069	     27.08584720	     71.74465465
      0.03333330	     -2.78161866	      0.76858809	     -1.45885414	     -0.87198774	      1.25874733	     -0.09045960	     -2.26344177	      0.65865380	      2.37649460	      0.65200831	      0.01137969	      4.54926134	    -10.52348703	     -7.47565854	     -2.35358648	      1.47852046	      4.37604348	      0.42370037	      0.00739497	      8.86005914	     -2.03207960	     -7.47565854	    -10.61920535	      1.03674123	      0.65491479	      9.32435222	     -7.41611441	     19.17849905	     26.84524756	     76.41038012	      7.96417123	     -7.68698672	     17.58238664	     27.10272442	     71.27216794
      0.03750000	     -2.77018426	      0.78365014	     -1.51949853	     -0.87051211	      1.26094305	     -0.09044056	     -2.27217131	      0.64377339	      2.29656646	      0.62488512	      0.01090630	      4.45547380	    -10.55293060	     -7.47568967	     -2.38539134	      1.47757406	      4.41675920	      0.43043681	      0.00751254	      8.74944871	     -1.99409185	     -7.47568967	    -10.66855446	      1.03359191	      0.67621254	      9.29693719	     -7.48292212	     19.19663737	     26.81715935	     76.41601652	      7.90034401	     -7.67918220	     17.60051115	     27.08005305	     71.28106204
      0.04166670	     -2.73186311	      0.80271837	     -1.50536827	     -0.87046039	      1.26096749	     -0.09067697	     -2.30408052	      0.65334853	      1.97174488	      0.55143133	      0.00962429	      3.80917554	    -10.69573758	     -7.47894599	     -2.42810762	      1.48168239	      4.62857230	      0.42608469	      0.00743658	      8.10403462	     -2.11757741	     -7.47894599	    -10.59763854	      1.04300482	      0.81818378	      9.43070153	     -7.50443353	     19.61286456	     26.09497401	     75.04563800	      8.11106145	     -7.48217233	     17.72169700	     26.33226629	     70.35945944
      0.04583330	     -2.35009608	      0.82225993	     -1.55591142	     -0.87058592	      1.26283022	     -0.09031216	     -2.71153612	      0.65131038	      2.37297757	      0.49033153	      0.00855790	      3.18419234	    -11.43359337	     -7.48291857	     -2.86388010	      1.50427733	      4.79816208	      0.41086356	      0.00717092	      7.78010892	     -2.41536909	     -7.48291857	    -11.17139095	      0.98442202	      0.84107504	      9.60899228	     -7.91026097	     21.49744190	     26.54036364	     75.14680224	      8.15519758	     -7.88980836	     19.15389838	     26.80117050	     70.90319266
      0.05000000	     -2.36697485	      0.82644081	     -1.57274521	     -0.87197590	      1.25925005	     -0.09087710	     -2.67470417	      0.66919359	      2.37156588	      0.46766798	      0.00816235	      3.20662262	    -11.44698945	     -7.48291577	     -2.82986950	      1.52996545	      4.81380803	      0.41651389	      0.00726954	      7.80789278	     -2.42189562	     -7.48291577	    -11.22086877	      0.99400280	      0.84238156	      9.62752682	     -7.95683327	     21.49165846	     26.51394158	     75.15446497	      8.16513996	     -7.92284943	     19.15062853	     26.77636811	     70.91119461
      0.05416670	     -2.28551711	      0.81426212	     -1.60656509	     -0.87318797	      1.25963828	     -0.08913767	     -2.72842919	      0.72183568	      2.37459116	      0.44014359	      0.00768195	      3.07683357	    -11.29854269	     -7.48515135	     -2.83808502	      1.47728965	      5.01230496	      0.40056861	      0.00699124	      7.43981448	     -2.46582377	     -7.48515135	    -11.41025363	      1.00461526	      0.89035334	      9.75286591	     -8.05733658	     21.67072897	     26.48245605	     74.63174467	      8.30472333	     -8.02139182	     19.32879211	     26.72260580	     70.74735608
      0.05833330	     -2.26010431	      0.79856391	     -1.56281552	     -0.87290125	      1.25894249	     -0.08871460	     -2.74490511	      0.78346352	      1.97521229	      0.42429754	      0.00740539	      3.27261004	    -10.73076950	     -7.48730872	     -2.79300605	      1.41553650	      5.24857568	      0.40359793	      0.00704411	      7.25127429	     -2.52953349	     -7.48730872	    -11.50978620	      1.00695553	      0.83160268	      9.84198161	     -8.03720015	     21.72564733	     26.29445186	     73.54674871	      8.37737012	     -8.08674892	     19.39562076	     26.57109045	     70.08403837
      0.06250000	     -2.26572781	      0.81713361	     -1.67222538	     -0.87389765	      1.25975787	     -0.08874779	     -2.68800863	      0.79726457	      2.35007019	      0.42492190	      0.00741629	      2.78526216	    -11.63563938	     -7.49176875	     -2.72805218	      1.38783951	      5.19337235	      0.39142514	      0.00683166	      7.07504374	     -2.38673364	     -7.49176875	    -11.61185500	      0.92714497	      0.97911894	      9.83989123	     -8.23484218	     21.98862766	     26.46781588	     76.17504337	      8.49407112	     -8.34921255	     19.93784772	     26.67999372	     73.84304632
      0.06666670	     -2.27425753	      0.80875278	     -1.72476211	     -0.87270469	      1.26065554	     -0.08881361	     -2.66855281	      0.83051132	      2.33604648	      0.42661266	      0.00744580	      2.75246248	    -11.63490438	     -7.49177641	     -2.67581752	      1.33266067	      5.23149873	      0.40041840	      0.00698862	      7.03177838	     -2.35974713	     -7.49177641	    -11.67101288	      0.88076031	      0.98250463	      9.83856704	     -8.27059136	     21.97916143	     26.45620259	     76.17489003	      8.48080458	     -8.39935054	     19.92749821	     26.66569345	     73.84504648
      0.07083330	     -2.21389203	      0.79591605	     -1.73435523	     -0.87274509	      1.25959212	     -0.08915842	     -2.73616628	      0.84548149	      2.32477677	      0.41061105	      0.00716651	      2.45662716	    -11.79285642	     -7.49368809	     -2.72317603	      1.29047848	      5.32895272	      0.38059740	      0.00664268	      6.68742087	     -2.47620512	     -7.49368809	    -11.78688263	      0.86636487	      1.02044120	      9.82909661	     -8.30457370	     21.98417101	     26.45661675	     74.79070021	      8.48769014	     -8.47741434	     19.88435809	     26.82855524	     72.86692297
      0.07500000	     -2.20456457	      0.78462084	     -1.74735870	     -0.87322208	      1.26134215	     -0.08870362	     -2.73885790	      0.86687817	      2.46235750	      0.40237614	      0.00702279	      2.26421285	    -11.97065525	     -7.49464686	     -2.71800979	      1.24879947	      5.42368430	      0.37822924	      0.00660135	      6.55972727	     -2.58789928	     -7.49464686	    -11.83413295	      0.86788994	      0.98367803	      9.86511796	     -8.33738967	     22.09890418	     26.41334350	     74.47687626	      8.49946191	     -8.55538832	     20.07955556	     26.77167747	     72.89063923
